<?xml version="1.0" encoding="utf-8"?>
<!-- Generator: Adobe Illustrator 24.2.3, SVG Export Plug-In . SVG Version: 6.00 Build 0)  -->
<svg version="1.1" id="Layer_1" xmlns:xodm="http://www.corel.com/coreldraw/odm/2003"
	 xmlns="http://www.w3.org/2000/svg" xmlns:xlink="http://www.w3.org/1999/xlink" x="0px" y="0px" viewBox="0 0 240 70"
	 style="enable-background:new 0 0 240 70;" xml:space="preserve">
<style type="text/css">
	.st0{fill-rule:evenodd;clip-rule:evenodd;fill:#3F4692;}
	.st1{fill-rule:evenodd;clip-rule:evenodd;fill:#373435;}
	.st2{fill-rule:evenodd;clip-rule:evenodd;fill:#D2D3D5;stroke:#D2D3D5;stroke-width:2.0002;stroke-miterlimit:10;}
	.st3{fill:#3F4692;}
	.st4{fill:#3E4095;}
	.st5{fill-rule:evenodd;clip-rule:evenodd;fill:#ED3237;}
	.st6{fill-rule:evenodd;clip-rule:evenodd;fill:#3E4095;}
	.st7{fill:#36ACE2;}
	.st8{fill:#201E1E;}
</style>
<g id="Layer_x0020_1">
	<g id="_2849719262080">
		<path class="st0" d="M147.2,8.4l1.1,1.4c1.1,1.4,2.5,3,4.2,4.7l10.9,11.7v-9.1c0-1.6-0.1-3.2-0.2-4.5c-0.1-0.9-0.3-1.8-0.6-2.7
			l-0.6-1.6h14.5l-0.4,1c-0.4,1-0.6,1.9-0.7,2.7c-0.2,0.8-0.2,1.7-0.3,3.1l-0.1,1.2v15c0,1.9-0.2,4.3,1,6.4l0.8,1.5h-14.5
			c-0.5-1-0.9-1.7-1.1-2c-0.3-0.4-1.1-1.4-2.5-2.9l-9.8-10.9v8c0,1.3,0.1,2.7,0.3,4c0.2,1.1,0.4,2.1,0.8,2.9l0.3,0.9h-14.5l0.4-0.9
			c0.4-1.2,0.6-2.4,0.7-3.8l0.2-1.7l0.1-19.3l-3.5-5.3L147.2,8.4L147.2,8.4z M108.2,26.1L108.2,26.1h6.3l-3.3-9.2l0,0L108.2,26.1
			L108.2,26.1z M118.2,8.3l0.4,1.4c0.2,0.5,0.3,0.9,0.4,1.1l9.7,24.3c0.8,1.9,1.9,2.9,2.4,3.4l0.8,0.9h-15.6l-0.1-0.7
			c-0.3-2.7-0.1-4.3-1.8-7.2h-7c-1.3,2.9-1.5,3.9-1.7,6.8l-0.1,1H90c1.1-1.4,2.6-2.6,3.1-3.7l12.1-25.1c0.2-0.4,0.4-0.8,0.6-1.3
			l0.3-1.1L118.2,8.3L118.2,8.3z M72.1,38.1c0.5-1.3,0.8-2.6,0.9-3.8l0.1-1V15.5l-0.1-1.7c-0.1-1-0.2-1.9-0.4-2.7
			c-0.2-0.6-0.5-1.5-1-2.8h14.1L85,9.8c-0.4,0.9-0.6,2.1-0.7,3.6L84.1,15v17.7l0.1,1.4c0.2,1.7,0.4,3.2,0.8,4.2l0.6,1.2H71.5
			L72.1,38.1L72.1,38.1z M179.6,15.3l2.7-7h32.9l-2.5,6.8c-2.8-2.1-5.4-2.1-8.4-1.9v19.6l0.1,1.5c0.1,1.4,0.4,2.8,0.9,4.3l0.4,1
			h-15.9l0.5-1.5c0.4-1.3,0.7-2.7,0.8-4.2l0.1-1.4V13.1C186.9,13.1,183.7,14.2,179.6,15.3L179.6,15.3z"/>
		<g>
			<polygon class="st1" points="71.5,50.4 71.5,44.2 72.5,44.2 72.5,50.4 			"/>
			<path class="st1" d="M77.4,50.4h-1v-2.3c0-0.5,0-0.8-0.1-0.9c-0.1-0.2-0.1-0.3-0.2-0.4c-0.1-0.1-0.2-0.1-0.3-0.1
				c-0.2,0-0.3,0.1-0.5,0.2c-0.1,0.1-0.2,0.2-0.3,0.4c-0.1,0.2-0.1,0.5-0.1,1v2.1h-1v-4.5h0.9v0.7c0.2-0.3,0.4-0.4,0.6-0.5
				c0.2-0.2,0.4-0.2,0.7-0.2c0.3,0,0.5,0.1,0.8,0.2c0.2,0.2,0.3,0.3,0.4,0.6c0.1,0.2,0.2,0.5,0.2,1L77.4,50.4L77.4,50.4z"/>
			<path class="st1" d="M78.5,49.1l1-0.2c0.1,0.5,0.4,0.7,0.8,0.7c0.2,0,0.4-0.1,0.5-0.2c0.1-0.1,0.2-0.2,0.2-0.3
				c0-0.1,0-0.2-0.1-0.2c-0.1-0.1-0.2-0.1-0.3-0.2c-0.8-0.2-1.4-0.4-1.6-0.6c-0.3-0.3-0.4-0.6-0.4-1c0-0.4,0.2-0.8,0.4-1
				c0.3-0.3,0.7-0.4,1.2-0.4c0.5,0,0.9,0.1,1.1,0.3c0.3,0.2,0.4,0.5,0.5,0.9l-0.9,0.2c-0.1-0.4-0.3-0.5-0.7-0.5
				c-0.3,0-0.4,0-0.5,0.1c-0.1,0.1-0.2,0.2-0.2,0.3c0,0.1,0.1,0.2,0.2,0.2c0.1,0.1,0.4,0.2,0.9,0.3c0.6,0.2,0.9,0.3,1.1,0.5
				c0.2,0.2,0.3,0.5,0.3,0.9c0,0.4-0.2,0.8-0.5,1.1c-0.3,0.3-0.7,0.4-1.2,0.4c-0.5,0-0.9-0.1-1.2-0.4C78.8,49.9,78.6,49.5,78.5,49.1
				L78.5,49.1z"/>
			<path class="st1" d="M85,45.9v1h-0.7v1.8c0,0.4,0,0.6,0,0.7c0.1,0.2,0.2,0.2,0.3,0.2s0.2-0.1,0.4-0.2l0.1,1
				c-0.2,0.1-0.5,0.2-0.8,0.2c-0.2,0-0.4-0.1-0.6-0.2c-0.2-0.2-0.2-0.3-0.3-0.5c-0.1-0.2-0.1-0.5-0.1-1v-2h-0.4v-1h0.4V45l1-0.7v1.6
				C84.4,45.9,85,45.9,85,45.9z"/>
			<path class="st1" d="M86.2,50.4v-4.5h1v4.5C87.2,50.4,86.2,50.4,86.2,50.4z M86.2,45.3v-1.1h1v1.1H86.2z"/>
			<path class="st1" d="M90.3,45.9v1h-0.7v1.8c0,0.4,0,0.6,0,0.7c0.1,0.2,0.1,0.2,0.3,0.2c0.1,0,0.2-0.1,0.4-0.2l0.1,1
				c-0.3,0.1-0.5,0.2-0.8,0.2c-0.2,0-0.4-0.1-0.6-0.2c-0.2-0.2-0.3-0.3-0.3-0.5c0-0.2-0.1-0.5-0.1-1v-2h-0.4v-1h0.4V45l1-0.7v1.6
				C89.7,45.9,90.3,45.9,90.3,45.9z"/>
			<path class="st1" d="M93.9,50.4v-0.7c-0.2,0.3-0.3,0.4-0.5,0.6c-0.3,0.2-0.5,0.2-0.8,0.2c-0.2,0-0.4-0.1-0.7-0.2
				c-0.2-0.1-0.3-0.3-0.4-0.5c-0.1-0.2-0.1-0.5-0.1-1v-2.8h1v2.1c0,0.6,0,1,0.1,1.1c0,0.2,0.1,0.3,0.2,0.4c0.1,0.1,0.3,0.1,0.4,0.1
				c0.2,0,0.3-0.1,0.5-0.2c0.1-0.1,0.2-0.3,0.3-0.4c0.1-0.2,0.1-0.6,0.1-1.2v-1.9h1v4.5L93.9,50.4L93.9,50.4z"/>
			<path class="st1" d="M98,45.9v1h-0.7v1.8c0,0.4,0,0.6,0.1,0.7c0,0.2,0.1,0.2,0.2,0.2c0.1,0,0.2-0.1,0.4-0.2l0.1,1
				c-0.2,0.1-0.5,0.2-0.8,0.2c-0.3,0-0.5-0.1-0.7-0.2c-0.1-0.2-0.2-0.3-0.3-0.5c-0.1-0.2-0.1-0.5-0.1-1v-2h-0.5v-1h0.5V45l1-0.7v1.6
				L98,45.9L98,45.9z"/>
			<path class="st1" d="M101.4,47.7c-0.1-0.3-0.1-0.6-0.3-0.8c-0.1-0.2-0.3-0.3-0.5-0.3c-0.2,0-0.4,0.1-0.5,0.3
				c-0.2,0.2-0.2,0.4-0.2,0.8H101.4z M101.3,48.9l1,0.2c-0.1,0.5-0.3,0.8-0.7,1c-0.3,0.2-0.6,0.3-1,0.3c-0.6,0-1-0.2-1.3-0.5
				c-0.4-0.4-0.5-1-0.5-1.8s0.2-1.4,0.5-1.8c0.3-0.4,0.7-0.6,1.2-0.6c0.5,0,1,0.2,1.2,0.6c0.4,0.4,0.5,1.1,0.5,2v0.2h-2.5
				c0,0.3,0.1,0.6,0.2,0.8c0.2,0.2,0.4,0.3,0.6,0.3C101,49.5,101.2,49.3,101.3,48.9z"/>
			<path class="st1" d="M106.9,48.1c0,0.5,0.1,0.8,0.3,1c0.2,0.3,0.4,0.4,0.7,0.4c0.2,0,0.4-0.1,0.7-0.4c0.2-0.2,0.3-0.5,0.3-1
				c0-0.4-0.1-0.8-0.3-1c-0.2-0.2-0.4-0.3-0.7-0.3c-0.2,0-0.4,0.1-0.6,0.3C106.9,47.3,106.9,47.6,106.9,48.1z M105.8,48
				c0-0.4,0.1-0.8,0.3-1.2c0.2-0.4,0.4-0.7,0.7-0.8c0.3-0.2,0.6-0.3,0.9-0.3c0.7,0,1.1,0.2,1.5,0.7c0.3,0.5,0.5,1,0.5,1.6
				c0,0.5-0.1,0.9-0.3,1.2c-0.2,0.4-0.4,0.7-0.7,0.9c-0.3,0.2-0.6,0.3-0.9,0.3c-0.6,0-1-0.2-1.4-0.7S105.8,48.8,105.8,48z"/>
			<path class="st1" d="M110.5,45.9h0.5v-0.3c0-0.4,0.1-0.7,0.1-0.9c0.1-0.2,0.2-0.4,0.4-0.4c0.2-0.1,0.4-0.2,0.7-0.2
				c0.3,0,0.6,0.1,0.9,0.1l-0.2,0.9c-0.2-0.1-0.3-0.1-0.4-0.1c-0.2,0-0.3,0.1-0.3,0.2c-0.1,0.1-0.1,0.2-0.1,0.4v0.3h0.8v0.9H112v3.6
				h-1v-3.6h-0.5L110.5,45.9L110.5,45.9z"/>
			<path class="st1" d="M119,47.9l-0.8-2.3l-0.7,2.3H119z M120.9,50.4h-1.1l-0.4-1.4h-2.1l-0.4,1.4h-1.1l2-6.2h1.1L120.9,50.4
				L120.9,50.4z"/>
			<path class="st1" d="M122.7,48c0,0.4,0,0.7,0.1,0.9c0.1,0.2,0.2,0.4,0.3,0.5c0.2,0.1,0.3,0.1,0.4,0.1c0.3,0,0.4-0.1,0.6-0.3
				c0.2-0.2,0.2-0.6,0.2-1c0-0.5-0.1-0.9-0.2-1.1c-0.2-0.2-0.3-0.3-0.6-0.3c-0.2,0-0.4,0.1-0.6,0.3C122.8,47.2,122.7,47.5,122.7,48
				L122.7,48z M125.4,50.4h-0.9v-0.7c-0.2,0.2-0.3,0.4-0.5,0.5c-0.2,0.2-0.4,0.2-0.7,0.2c-0.4,0-0.8-0.2-1.1-0.7
				c-0.3-0.4-0.5-1-0.5-1.7s0.2-1.4,0.4-1.7c0.3-0.4,0.7-0.6,1.1-0.6c0.2,0,0.4,0.1,0.6,0.2c0.2,0.1,0.4,0.3,0.5,0.5v-2.2h1
				L125.4,50.4L125.4,50.4z"/>
			<polygon class="st1" points="127.8,50.4 126.3,45.9 127.3,45.9 128,48.1 128.2,48.9 128.5,48.1 129.2,45.9 130.2,45.9 
				128.7,50.4 			"/>
			<path class="st1" d="M133.3,48.2c-0.2,0.1-0.3,0.1-0.6,0.2c-0.3,0.1-0.5,0.2-0.6,0.3c-0.1,0.1-0.2,0.2-0.2,0.4s0.1,0.3,0.2,0.4
				s0.2,0.2,0.4,0.2c0.2,0,0.3-0.1,0.4-0.1c0.1-0.1,0.2-0.2,0.3-0.3c0.1-0.2,0.1-0.4,0.1-0.8L133.3,48.2L133.3,48.2z M132,47.2
				l-0.9-0.2c0.1-0.5,0.3-0.8,0.5-1c0.3-0.2,0.7-0.3,1.1-0.3c0.4,0,0.8,0.1,1,0.2c0.2,0.1,0.4,0.3,0.5,0.5s0.2,0.5,0.2,1.1v1.4
				c0,0.4,0,0.7,0,0.9c0.1,0.2,0.1,0.4,0.2,0.6h-1l-0.2-0.5c-0.2,0.2-0.3,0.3-0.5,0.4c-0.2,0.1-0.4,0.2-0.6,0.2
				c-0.4,0-0.7-0.1-0.9-0.4c-0.2-0.2-0.4-0.5-0.4-1c0.1-0.2,0.1-0.4,0.2-0.7c0.1-0.2,0.2-0.3,0.4-0.4c0.2-0.1,0.4-0.2,0.8-0.3
				c0.4-0.1,0.8-0.2,1-0.3c0-0.3-0.1-0.4-0.1-0.5c-0.1-0.1-0.1-0.2-0.2-0.2c-0.1-0.1-0.2-0.1-0.4-0.1c-0.2,0-0.3,0.1-0.4,0.1
				C132.1,46.8,132,47,132,47.2L132,47.2z"/>
			<path class="st1" d="M139.1,50.4h-1v-2.3c0-0.5-0.1-0.8-0.1-0.9c-0.1-0.2-0.1-0.3-0.2-0.4c-0.1-0.1-0.2-0.1-0.4-0.1
				c-0.2,0-0.3,0.1-0.4,0.2c-0.2,0.1-0.2,0.2-0.3,0.4c-0.1,0.2-0.1,0.5-0.1,1v2.1h-1v-4.5h0.9v0.7c0.2-0.3,0.3-0.4,0.5-0.5
				c0.2-0.2,0.4-0.2,0.7-0.2s0.5,0.1,0.7,0.2c0.2,0.2,0.3,0.3,0.4,0.6c0.1,0.2,0.1,0.5,0.1,1L139.1,50.4L139.1,50.4z"/>
			<path class="st1" d="M143.9,47.2l-1,0.2c-0.1-0.4-0.3-0.7-0.7-0.7c-0.2,0-0.4,0.1-0.5,0.3c-0.2,0.2-0.3,0.5-0.3,1
				c0,0.5,0.1,0.9,0.2,1.1c0.2,0.2,0.4,0.3,0.7,0.3c0.2,0,0.3-0.1,0.4-0.2c0.1-0.1,0.2-0.3,0.3-0.7l1,0.2c-0.2,1.1-0.8,1.6-1.7,1.6
				c-0.6,0-1.1-0.2-1.4-0.7c-0.3-0.4-0.4-1-0.4-1.6c0-0.8,0.2-1.4,0.5-1.8c0.3-0.4,0.8-0.6,1.3-0.6c0.4,0,0.8,0.1,1.1,0.3
				C143.5,46.3,143.8,46.7,143.9,47.2L143.9,47.2z"/>
			<path class="st1" d="M147.3,47.7c0-0.3-0.1-0.6-0.2-0.8c-0.2-0.2-0.3-0.3-0.5-0.3c-0.2,0-0.4,0.1-0.5,0.3
				c-0.2,0.2-0.2,0.4-0.2,0.8H147.3L147.3,47.7z M147.2,48.9l1,0.2c-0.2,0.5-0.4,0.8-0.7,1s-0.6,0.3-1,0.3c-0.5,0-1-0.2-1.2-0.5
				c-0.4-0.4-0.5-1-0.5-1.8s0.2-1.4,0.5-1.8c0.3-0.4,0.7-0.6,1.2-0.6c0.5,0,0.9,0.2,1.2,0.6c0.3,0.4,0.5,1.1,0.5,2l-0.1,0.2h-2.5
				c0.1,0.3,0.1,0.6,0.3,0.8s0.3,0.3,0.6,0.3C146.9,49.5,147.1,49.3,147.2,48.9L147.2,48.9z"/>
			<polygon class="st1" points="152,50.4 152,44.2 153,44.2 155.1,48.3 155.1,44.2 156.1,44.2 156.1,50.4 155.1,50.4 153,46.3 
				153,50.4 			"/>
			<path class="st1" d="M159.9,47.7c-0.1-0.3-0.1-0.6-0.3-0.8c-0.1-0.2-0.3-0.3-0.5-0.3c-0.2,0-0.4,0.1-0.5,0.3
				c-0.2,0.2-0.2,0.4-0.2,0.8H159.9L159.9,47.7z M159.9,48.9l1,0.2c-0.2,0.5-0.3,0.8-0.7,1c-0.3,0.2-0.6,0.3-1,0.3
				c-0.6,0-1-0.2-1.3-0.5c-0.4-0.4-0.5-1-0.5-1.8s0.2-1.4,0.5-1.8c0.3-0.4,0.7-0.6,1.2-0.6c0.5,0,1,0.2,1.2,0.6
				c0.4,0.4,0.5,1.1,0.5,2v0.2h-2.5c0,0.3,0.1,0.6,0.2,0.8c0.2,0.2,0.4,0.3,0.6,0.3C159.5,49.5,159.8,49.3,159.9,48.9z"/>
			<path class="st1" d="M163.9,45.9v1h-0.7v1.8c0,0.4,0,0.6,0.1,0.7c0,0.2,0.1,0.2,0.2,0.2c0.1,0,0.2-0.1,0.4-0.2l0.1,1
				c-0.2,0.1-0.5,0.2-0.8,0.2c-0.3,0-0.5-0.1-0.7-0.2c-0.1-0.2-0.2-0.3-0.3-0.5c-0.1-0.2-0.1-0.5-0.1-1v-2h-0.5v-1h0.5V45l1-0.7v1.6
				L163.9,45.9L163.9,45.9z"/>
			<polygon class="st1" points="165.7,50.4 164.5,45.9 165.4,45.9 166.2,48.8 166.8,45.9 167.8,45.9 168.4,48.8 169.1,45.9 
				170.1,45.9 168.9,50.4 167.9,50.4 167.3,47.5 166.6,50.4 			"/>
			<path class="st1" d="M171.8,48.1c0,0.5,0.1,0.8,0.3,1c0.2,0.3,0.4,0.4,0.7,0.4s0.5-0.1,0.7-0.4c0.2-0.2,0.3-0.5,0.3-1
				c0-0.4-0.1-0.8-0.3-1c-0.2-0.2-0.4-0.3-0.7-0.3s-0.5,0.1-0.7,0.3C172,47.3,171.8,47.6,171.8,48.1z M170.8,48
				c0-0.4,0.1-0.8,0.3-1.2c0.2-0.4,0.4-0.7,0.7-0.8c0.3-0.2,0.6-0.3,1-0.3c0.6,0,1.1,0.2,1.4,0.7c0.4,0.5,0.5,1,0.5,1.6
				c0,0.5-0.1,0.9-0.3,1.2c-0.2,0.4-0.4,0.7-0.7,0.9c-0.3,0.2-0.6,0.3-1,0.3c-0.5,0-1-0.2-1.4-0.7C171,49.4,170.8,48.8,170.8,48
				L170.8,48z"/>
			<path class="st1" d="M176.9,50.4h-1v-4.5h1v0.7c0.1-0.3,0.3-0.5,0.4-0.6c0.2-0.1,0.3-0.2,0.4-0.2c0.3,0,0.5,0.1,0.7,0.2l-0.3,1
				c-0.2-0.1-0.3-0.2-0.5-0.2c-0.1,0-0.3,0.1-0.4,0.2c-0.1,0.1-0.2,0.3-0.2,0.5c-0.1,0.2-0.1,0.7-0.1,1.4L176.9,50.4L176.9,50.4z"/>
			<polygon class="st1" points="179.2,50.4 179.2,44.2 180.1,44.2 180.1,47.4 181.3,45.9 182.5,45.9 181.2,47.5 182.6,50.4 
				181.6,50.4 180.6,48.3 180.1,48.9 180.1,50.4 			"/>
			<polygon class="st1" points="187.3,50.4 187.3,45.2 185.7,45.2 185.7,44.2 189.9,44.2 189.9,45.2 188.3,45.2 188.3,50.4 			"/>
			<path class="st1" d="M193.2,47.7c0-0.3-0.1-0.6-0.2-0.8c-0.2-0.2-0.3-0.3-0.5-0.3c-0.2,0-0.4,0.1-0.5,0.3
				c-0.2,0.2-0.3,0.4-0.2,0.8H193.2L193.2,47.7z M193.2,48.9l1,0.2c-0.1,0.5-0.3,0.8-0.6,1c-0.3,0.2-0.6,0.3-1,0.3
				c-0.5,0-1-0.2-1.3-0.5c-0.3-0.4-0.5-1-0.5-1.8s0.2-1.4,0.5-1.8c0.3-0.4,0.7-0.6,1.2-0.6c0.5,0,1,0.2,1.3,0.6
				c0.3,0.4,0.5,1.1,0.5,2v0.2h-2.5c0,0.3,0.1,0.6,0.3,0.8c0.2,0.2,0.3,0.3,0.5,0.3C192.8,49.5,193.1,49.3,193.2,48.9z"/>
			<path class="st1" d="M198.7,47.2l-1,0.2c-0.1-0.4-0.3-0.7-0.7-0.7c-0.2,0-0.4,0.1-0.6,0.3c-0.2,0.2-0.2,0.5-0.2,1
				c0,0.5,0.1,0.9,0.2,1.1c0.2,0.2,0.4,0.3,0.6,0.3s0.4-0.1,0.5-0.2c0.1-0.1,0.2-0.3,0.3-0.7l1,0.2c-0.2,1.1-0.8,1.6-1.7,1.6
				c-0.7,0-1.1-0.2-1.4-0.7c-0.3-0.4-0.4-1-0.4-1.6c0-0.8,0.2-1.4,0.5-1.8c0.4-0.4,0.8-0.6,1.4-0.6c0.4,0,0.8,0.1,1.1,0.3
				C198.4,46.3,198.6,46.7,198.7,47.2L198.7,47.2z"/>
			<path class="st1" d="M200.9,44.2v2.3c0.2-0.3,0.3-0.4,0.5-0.5c0.2-0.1,0.4-0.2,0.6-0.2c0.3,0,0.5,0.1,0.8,0.2
				c0.2,0.2,0.3,0.4,0.4,0.7c0.1,0.2,0.1,0.5,0.1,1v2.7h-1V48c0-0.5,0-0.9-0.1-1c-0.1-0.2-0.3-0.3-0.5-0.3c-0.3,0-0.4,0.1-0.6,0.3
				c-0.2,0.2-0.2,0.6-0.2,1.1v2.3h-1v-6.2L200.9,44.2L200.9,44.2z"/>
			<path class="st1" d="M208.2,50.4h-1v-2.3c0-0.5,0-0.8-0.1-0.9c-0.1-0.2-0.1-0.3-0.2-0.4c-0.1-0.1-0.2-0.1-0.3-0.1
				c-0.2,0-0.3,0.1-0.5,0.2c-0.1,0.1-0.2,0.2-0.3,0.4c-0.1,0.2-0.1,0.5-0.1,1v2.1h-1v-4.5h0.9v0.7c0.2-0.3,0.4-0.4,0.6-0.5
				c0.2-0.2,0.4-0.2,0.7-0.2c0.3,0,0.5,0.1,0.8,0.2c0.2,0.2,0.3,0.3,0.4,0.6c0.1,0.2,0.1,0.5,0.1,1L208.2,50.4L208.2,50.4z"/>
			<path class="st1" d="M210.5,48.1c0,0.5,0.1,0.8,0.3,1c0.2,0.3,0.4,0.4,0.7,0.4s0.5-0.1,0.7-0.4c0.2-0.2,0.3-0.5,0.3-1
				c0-0.4-0.1-0.8-0.3-1c-0.2-0.2-0.4-0.3-0.7-0.3c-0.3,0-0.5,0.1-0.7,0.3C210.5,47.3,210.5,47.6,210.5,48.1z M209.4,48
				c0-0.4,0.1-0.8,0.3-1.2c0.2-0.4,0.4-0.7,0.7-0.8c0.3-0.2,0.6-0.3,1-0.3c0.6,0,1.1,0.2,1.4,0.7c0.3,0.5,0.5,1,0.5,1.6
				c0,0.5-0.1,0.9-0.3,1.2c-0.2,0.4-0.4,0.7-0.7,0.9c-0.3,0.2-0.7,0.3-1,0.3c-0.5,0-1-0.2-1.4-0.7C209.6,49.4,209.4,48.8,209.4,48z"
				/>
			<polygon class="st1" points="214.5,50.4 214.5,44.2 215.5,44.2 215.5,50.4 			"/>
			<path class="st1" d="M217.8,48.1c0,0.5,0.1,0.8,0.3,1c0.2,0.3,0.4,0.4,0.7,0.4c0.3,0,0.4-0.1,0.7-0.4c0.2-0.2,0.3-0.5,0.3-1
				c0-0.4-0.1-0.8-0.3-1c-0.2-0.2-0.4-0.3-0.7-0.3c-0.3,0-0.5,0.1-0.7,0.3C217.8,47.3,217.8,47.6,217.8,48.1z M216.8,48
				c0-0.4,0.1-0.8,0.3-1.2c0.2-0.4,0.4-0.7,0.7-0.8c0.3-0.2,0.6-0.3,1-0.3c0.6,0,1.1,0.2,1.4,0.7c0.3,0.5,0.5,1,0.5,1.6
				c0,0.5-0.1,0.9-0.3,1.2c-0.2,0.4-0.4,0.7-0.8,0.9c-0.3,0.2-0.6,0.3-0.9,0.3c-0.6,0-1-0.2-1.4-0.7C216.9,49.4,216.8,48.8,216.8,48
				L216.8,48z"/>
			<path class="st1" d="M222.7,48c0,0.5,0.1,0.8,0.2,1s0.3,0.3,0.6,0.3c0.2,0,0.4-0.1,0.6-0.3c0.2-0.2,0.3-0.5,0.3-1
				c0-0.4-0.1-0.8-0.3-1s-0.4-0.3-0.6-0.3c-0.3,0-0.4,0.1-0.6,0.3C222.7,47.2,222.7,47.5,222.7,48z M221.7,50.6l1.1,0.2
				c0.1,0.2,0.1,0.3,0.2,0.4c0.1,0.1,0.2,0.1,0.4,0.1c0.2,0,0.4-0.1,0.5-0.1c0.1-0.1,0.2-0.2,0.2-0.3c0.1-0.1,0.1-0.3,0.1-0.6v-0.7
				c-0.2,0.3-0.3,0.4-0.5,0.5c-0.2,0.2-0.4,0.2-0.7,0.2c-0.4,0-0.8-0.2-1-0.5c-0.3-0.4-0.5-1-0.5-1.7c0-0.8,0.2-1.4,0.4-1.7
				c0.3-0.4,0.7-0.6,1.1-0.6c0.3,0,0.4,0.1,0.7,0.2c0.2,0.1,0.4,0.3,0.5,0.5v-0.7h1v4c0,0.7-0.1,1.1-0.2,1.4
				c-0.1,0.3-0.3,0.5-0.5,0.7c-0.3,0.2-0.6,0.2-1,0.2c-0.4,0-0.8-0.1-1-0.2c-0.2-0.1-0.4-0.2-0.5-0.4c-0.2-0.2-0.2-0.5-0.2-0.8
				L221.7,50.6L221.7,50.6z"/>
			<path class="st1" d="M226.2,45.9h1.1l0.9,3.2l0.9-3.2h1l-1.3,4.3l-0.3,0.8c-0.1,0.3-0.2,0.5-0.3,0.7c-0.1,0.2-0.3,0.3-0.4,0.3
				c-0.2,0.1-0.4,0.1-0.6,0.1c-0.2,0-0.4,0-0.6-0.1l-0.1-0.9c0.1,0.1,0.3,0.1,0.4,0.1c0.2,0,0.4-0.1,0.5-0.2
				c0.1-0.2,0.2-0.4,0.3-0.7L226.2,45.9L226.2,45.9z"/>
		</g>
		<g>
			<path class="st2" d="M37,33.1c-7.5,0-13.6-6.1-13.6-13.6S29.5,6,37,6s13.6,6.1,13.6,13.6S44.5,33.1,37,33.1z"/>
			<path class="st3" d="M37.5,24.6v6.1c1,0.2,1.8,1.1,1.8,2.2c0,1.3-1,2.3-2.3,2.3c-1.3,0-2.3-1-2.3-2.3c0-1.1,0.8-2,1.8-2.2v-6.1
				C36.5,24.6,37.5,24.6,37.5,24.6z"/>
			<path class="st4" d="M37,25c-1.5,0-2.9-0.6-3.9-1.6s-1.6-2.4-1.6-3.9c0-1.5,0.6-2.9,1.6-3.9c1-1,2.4-1.6,3.9-1.6
				c1.5,0,2.9,0.6,3.9,1.6c1,1,1.6,2.4,1.6,3.9s-0.6,2.9-1.6,3.9C39.9,24.4,38.5,25,37,25z M33.9,22.7c0.8,0.8,1.9,1.3,3.1,1.3
				s2.3-0.5,3.1-1.3c0.8-0.8,1.3-1.9,1.3-3.1s-0.5-2.3-1.3-3.1c-0.8-0.8-1.9-1.3-3.1-1.3s-2.3,0.5-3.1,1.3c-0.8,0.8-1.3,1.9-1.3,3.1
				C32.6,20.8,33.1,21.9,33.9,22.7z"/>
			<path class="st3" d="M31.7,19.4L20.3,16c-0.5,0.9-1.6,1.4-2.7,1c-1.2-0.4-1.9-1.7-1.5-2.9c0.4-1.2,1.7-1.9,2.9-1.5
				c1,0.3,1.7,1.3,1.6,2.4L32,18.4L31.7,19.4z"/>
			<path class="st3" d="M41.5,21.3l11.8,4.3c0.6-0.9,1.7-1.3,2.7-0.9c1.2,0.5,1.8,1.8,1.3,3c-0.5,1.2-1.8,1.8-3,1.3
				c-1-0.4-1.6-1.4-1.4-2.5l-11.8-4.3C41.1,22.2,41.5,21.3,41.5,21.3z"/>
			<path class="st3" d="M41.9,18.5l2.9-0.6c0.1-1,0.8-1.9,1.9-2.1c1.2-0.2,2.4,0.6,2.6,1.9c0.2,1.2-0.6,2.4-1.9,2.6
				c-1.1,0.2-2.1-0.4-2.5-1.4L42,19.5L41.9,18.5L41.9,18.5z"/>
			<path class="st5" d="M30.8,14.2c-1.3,0-2.3-1-2.3-2.3s1-2.3,2.3-2.3s2.3,1,2.3,2.3C33.1,13.2,32.1,14.2,30.8,14.2z"/>
			<path class="st6" d="M37,21.9c-1.3,0-2.3-1-2.3-2.3c0-1.3,1-2.3,2.3-2.3c1.3,0,2.3,1,2.3,2.3C39.4,20.8,38.3,21.9,37,21.9z"/>
			<path class="st7" d="M28,26.2l-12.7,7.5c0,0.1,0.1,0.1,0.1,0.2c2.5,3.7,5.9,6.8,10.1,8.9l-0.6,1.1c-4.3-2.2-7.9-5.4-10.5-9.3
				c-2.6-3.9-4.2-8.5-4.5-13.3l1.3-0.1c0.3,4.2,1.5,8.2,3.6,11.7l12.7-7.5c-0.9-1.5-1.5-3.3-1.5-5.2l1,0c0.1,2.2,0.9,4.2,2.2,5.9
				c1.3,1.6,3.1,2.9,5.3,3.4l-0.3,1c-2.3-0.6-4.4-2-5.8-3.8C28.2,26.5,28.1,26.4,28,26.2z M52.9,20.9c0.3-0.1,0.6-0.2,0.9-0.2
				c0.3,0,0.6-0.1,0.9-0.1c3.2,0,5.9,2.6,5.9,5.9s-2.6,5.9-5.9,5.9c-1.2,0-2.3-0.3-3.2-1c-0.9-0.6-1.7-1.5-2.2-2.6l0.9-0.4
				c0.4,0.9,1,1.6,1.8,2.1c0.8,0.5,1.7,0.8,2.7,0.8c2.7,0,4.9-2.2,4.9-4.9c0-2.7-2.2-4.9-4.9-4.9c-0.3,0-0.5,0-0.8,0.1
				c-0.2,0-0.5,0.1-0.7,0.2L52.9,20.9L52.9,20.9z M45.9,26.3c-0.5,0.6-1,1.2-1.5,1.7c-0.6,0.5-1.2,1-1.9,1.3L42,28.4
				c0.6-0.3,1.2-0.8,1.7-1.2c0.5-0.5,1-1,1.4-1.5L45.9,26.3L45.9,26.3z M34.6,8.9c0.4-0.1,0.8-0.1,1.2-0.2c0.4,0,0.8-0.1,1.2-0.1
				c2,0,4,0.6,5.7,1.6c1.7,1,3.1,2.5,4.1,4.3L45.9,15c-0.9-1.6-2.2-3-3.7-3.9c-1.5-0.9-3.3-1.4-5.2-1.4c-0.4,0-0.7,0-1.1,0.1
				c-0.4,0-0.7,0.1-1.1,0.2L34.6,8.9L34.6,8.9z M20.4,20.3c-0.4,0.2-0.8,0.3-1.1,0.4c-0.4,0.1-0.8,0.1-1.2,0.1c-1.6,0-3-0.6-4.1-1.7
				c-1-1-1.7-2.5-1.7-4.1c0-0.8,0.2-1.5,0.4-2.2c0.3-0.7,0.7-1.3,1.3-1.9l0.7,0.7c-0.4,0.4-0.8,1-1,1.6c-0.2,0.6-0.4,1.2-0.4,1.8
				c0,1.3,0.5,2.5,1.4,3.4c0.9,0.9,2.1,1.4,3.4,1.4c0.3,0,0.7,0,1-0.1c0.3-0.1,0.6-0.2,0.9-0.3L20.4,20.3L20.4,20.3z"/>
			<path class="st8" d="M26,44.6l0.3,0.1c0,0.1,0,0.2,0,0.3c0,0.1,0.1,0.1,0.2,0.2c0.1,0,0.2,0.1,0.3,0c0.1,0,0.1-0.1,0.1-0.1
				c0,0,0-0.1,0-0.1c0,0,0-0.1-0.1-0.1c0,0-0.1-0.1-0.2-0.2c-0.2-0.1-0.3-0.2-0.3-0.3c-0.1-0.1-0.1-0.3,0-0.4c0-0.1,0.1-0.2,0.2-0.2
				c0.1-0.1,0.2-0.1,0.3-0.1c0.1,0,0.2,0,0.4,0.1c0.2,0.1,0.3,0.2,0.4,0.3c0.1,0.1,0.1,0.3,0,0.4l-0.3-0.1c0-0.1,0-0.2,0-0.2
				c0-0.1-0.1-0.1-0.2-0.1c-0.1,0-0.2-0.1-0.3,0c0,0-0.1,0-0.1,0.1c0,0,0,0.1,0,0.1c0,0.1,0.1,0.1,0.3,0.2c0.1,0.1,0.3,0.2,0.3,0.3
				c0.1,0.1,0.1,0.2,0.1,0.2c0,0.1,0,0.2,0,0.3c0,0.1-0.1,0.2-0.2,0.2c-0.1,0.1-0.2,0.1-0.3,0.1c-0.1,0-0.2,0-0.4-0.1
				c-0.2-0.1-0.4-0.2-0.4-0.3C25.9,45,25.9,44.8,26,44.6L26,44.6z M28.5,44.8l0.3,0.1l-0.1,0.2C28.8,45,28.9,45,29,45
				c0.1,0,0.2,0,0.2,0c0.1,0,0.3,0.1,0.3,0.3c0.1,0.1,0.1,0.3,0,0.5c-0.1,0.2-0.2,0.4-0.3,0.4c-0.1,0.1-0.3,0.1-0.4,0.1
				c-0.1,0-0.1-0.1-0.2-0.1c0,0-0.1-0.1-0.1-0.2l-0.2,0.6L28,46.5L28.5,44.8L28.5,44.8z M28.7,45.5c0,0.1,0,0.3,0,0.3
				c0,0.1,0.1,0.1,0.2,0.2c0.1,0,0.2,0,0.2,0c0.1,0,0.1-0.1,0.2-0.3c0-0.1,0-0.2,0-0.3c0-0.1-0.1-0.1-0.2-0.2c-0.1,0-0.2,0-0.2,0
				C28.8,45.3,28.7,45.4,28.7,45.5L28.7,45.5z M30.8,46.8l-0.3-0.1l0.3-1.3l0.3,0.1l0,0.2c0.1-0.1,0.1-0.1,0.2-0.1c0,0,0.1,0,0.2,0
				c0.1,0,0.1,0.1,0.2,0.1L31.5,46c0-0.1-0.1-0.1-0.1-0.1c0,0-0.1,0-0.1,0c0,0-0.1,0.1-0.1,0.1c0,0.1-0.1,0.2-0.1,0.4L30.8,46.8
				L30.8,46.8z M33.1,46.8l0.3,0.1c-0.1,0.1-0.1,0.2-0.2,0.3c-0.1,0.1-0.2,0.1-0.4,0c-0.2,0-0.4-0.1-0.5-0.3
				c-0.1-0.1-0.1-0.3-0.1-0.5c0-0.2,0.1-0.4,0.2-0.5c0.1-0.1,0.3-0.1,0.5-0.1c0.2,0,0.3,0.1,0.4,0.3c0.1,0.1,0.1,0.3,0.1,0.6
				l-0.9-0.1c0,0.1,0,0.2,0,0.2c0,0.1,0.1,0.1,0.2,0.1c0.1,0,0.1,0,0.1,0C33.1,46.9,33.1,46.9,33.1,46.8z M33.2,46.5
				c0-0.1,0-0.2,0-0.2s-0.1-0.1-0.2-0.1c-0.1,0-0.1,0-0.2,0.1c-0.1,0-0.1,0.1-0.1,0.2C32.7,46.4,33.2,46.5,33.2,46.5z M34.9,46.5
				l-0.3-0.1c0-0.1,0.1-0.2,0.2-0.3c0.1-0.1,0.2-0.1,0.4-0.1c0.2,0,0.3,0,0.3,0.1c0.1,0,0.1,0.1,0.1,0.2c0,0.1,0,0.2,0,0.3l0,0.4
				c0,0.1,0,0.2,0,0.3c0,0.1,0,0.1,0,0.2l-0.3,0c0,0,0-0.1,0-0.1c0,0,0,0,0,0c-0.1,0.1-0.1,0.1-0.2,0.1s-0.1,0-0.2,0
				c-0.1,0-0.2-0.1-0.3-0.1c-0.1-0.1-0.1-0.2-0.1-0.3c0-0.1,0-0.1,0.1-0.2c0-0.1,0.1-0.1,0.2-0.1c0.1,0,0.2,0,0.3-0.1
				c0.2,0,0.3,0,0.3-0.1l0,0c0-0.1,0-0.1,0-0.1c0,0-0.1-0.1-0.2-0.1c-0.1,0-0.1,0-0.1,0C35,46.4,34.9,46.4,34.9,46.5L34.9,46.5z
				 M35.3,46.8c0,0-0.1,0-0.2,0c-0.1,0-0.2,0-0.2,0c0,0-0.1,0.1-0.1,0.1c0,0,0,0.1,0,0.1c0,0,0.1,0.1,0.1,0.1c0.1,0,0.1,0,0.2,0
				c0,0,0.1-0.1,0.1-0.1C35.3,47,35.3,47,35.3,46.8L35.3,46.8L35.3,46.8z M38,47.5l-0.3,0l0-0.2c-0.1,0.1-0.1,0.1-0.2,0.2
				c-0.1,0-0.1,0.1-0.2,0.1c-0.2,0-0.3-0.1-0.4-0.2c-0.1-0.1-0.2-0.3-0.2-0.5c0-0.2,0-0.4,0.1-0.5c0.1-0.1,0.2-0.2,0.4-0.2
				c0.1,0,0.3,0.1,0.4,0.2l0-0.6l0.3,0L38,47.5L38,47.5z M37.1,46.8c0,0.1,0,0.2,0.1,0.3c0.1,0.1,0.1,0.1,0.2,0.1
				c0.1,0,0.1,0,0.2-0.1c0.1-0.1,0.1-0.2,0.1-0.3c0-0.1,0-0.3-0.1-0.3c-0.1-0.1-0.1-0.1-0.2-0.1c-0.1,0-0.1,0-0.2,0.1
				C37.1,46.6,37.1,46.7,37.1,46.8z M39.1,45.9l0-0.3l0.3,0l0,0.3L39.1,45.9z M39.3,47.4l-0.1-1.3l0.3,0l0.1,1.3L39.3,47.4z M42,47
				l-0.3,0.1l-0.1-0.7c0-0.1-0.1-0.2-0.1-0.3c0,0-0.1-0.1-0.1-0.1c0,0-0.1,0-0.1,0c-0.1,0-0.1,0-0.1,0.1c0,0-0.1,0.1-0.1,0.1
				c0,0.1,0,0.2,0,0.3l0.1,0.6l-0.3,0.1L40.6,46l0.3-0.1l0,0.2c0.1-0.2,0.2-0.3,0.4-0.3c0.1,0,0.1,0,0.2,0c0.1,0,0.1,0,0.2,0.1
				c0,0,0.1,0.1,0.1,0.1c0,0.1,0,0.1,0.1,0.2C41.8,46.3,42,47,42,47z M43.2,46.9l0.4,0c0,0,0,0.1,0.1,0.1c0,0,0.1,0,0.2,0
				c0.1,0,0.2,0,0.2-0.1c0,0,0-0.1,0-0.1c0,0,0-0.1,0-0.2l0-0.2c-0.1,0.2-0.2,0.3-0.3,0.3c-0.2,0-0.3,0-0.5-0.1
				c-0.1-0.1-0.2-0.2-0.2-0.4c0-0.2,0-0.4,0-0.5c0.1-0.1,0.2-0.2,0.3-0.3c0.2,0,0.3,0,0.4,0.1l0-0.2l0.3-0.1l0.3,1.1
				c0,0.2,0,0.3,0,0.3c0,0.1,0,0.1-0.1,0.2c0,0.1-0.1,0.1-0.2,0.1c-0.1,0-0.2,0.1-0.3,0.1c-0.2,0.1-0.4,0-0.5,0
				C43.3,47.1,43.2,47.1,43.2,46.9C43.2,46.9,43.2,46.9,43.2,46.9L43.2,46.9z M43.3,46.1c0,0.1,0.1,0.2,0.1,0.3s0.1,0.1,0.2,0
				c0.1,0,0.1-0.1,0.2-0.1c0-0.1,0-0.2,0-0.3c0-0.1-0.1-0.2-0.1-0.3c-0.1-0.1-0.1-0.1-0.2,0c-0.1,0-0.1,0.1-0.2,0.1
				C43.3,45.9,43.3,46,43.3,46.1L43.3,46.1z M45.4,46.2l-0.6-1.7l0.3-0.1l0.3,0.8l0.4-1l0.5-0.2l-0.4,0.9l1,0.8l-0.4,0.2l-0.8-0.6
				l-0.2,0.4l0.2,0.5L45.4,46.2L45.4,46.2z M49,44.8L48.7,45l-0.3-0.6c-0.1-0.1-0.1-0.2-0.1-0.2c0,0-0.1-0.1-0.1-0.1
				c0,0-0.1,0-0.1,0c-0.1,0-0.1,0.1-0.1,0.1c0,0.1,0,0.1,0,0.2c0,0.1,0,0.2,0.1,0.3l0.2,0.5l-0.3,0.1l-0.6-1.2l0.3-0.1l0.1,0.2
				c0-0.2,0.1-0.3,0.3-0.4c0.1,0,0.1,0,0.2-0.1c0.1,0,0.1,0,0.2,0c0,0,0.1,0.1,0.1,0.1c0,0,0.1,0.1,0.1,0.2L49,44.8L49,44.8z
				 M49.7,43.8c-0.1-0.1-0.1-0.2-0.1-0.3c0-0.1,0-0.2,0.1-0.3c0.1-0.1,0.1-0.2,0.3-0.3c0.2-0.1,0.3-0.1,0.5-0.1
				c0.2,0,0.3,0.2,0.4,0.3c0.1,0.2,0.1,0.3,0.1,0.5c0,0.2-0.1,0.3-0.3,0.4c-0.1,0.1-0.2,0.1-0.3,0.1c-0.1,0-0.2,0-0.3-0.1
				C49.8,44,49.7,43.9,49.7,43.8L49.7,43.8z M50,43.6c0.1,0.1,0.1,0.2,0.2,0.2c0.1,0,0.2,0,0.2,0c0.1,0,0.1-0.1,0.1-0.2
				c0-0.1,0-0.2-0.1-0.3c-0.1-0.1-0.1-0.2-0.2-0.2c-0.1,0-0.2,0-0.2,0c-0.1,0-0.1,0.1-0.1,0.2C49.9,43.4,49.9,43.5,50,43.6L50,43.6z
				 M52.4,43l-1.1-0.8l0.3-0.2l0.7,0.5l-0.3-0.8l0.3-0.2l0.7,0.6l-0.3-0.8l0.3-0.2l0.4,1.3L53,42.5L52.3,42l0.3,0.8L52.4,43L52.4,43
				z M54.5,41.4L53.3,40l0.3-0.2l1.1,1.4L54.5,41.4L54.5,41.4z M55.9,39.6l0.3-0.2c0.1,0.1,0.1,0.2,0,0.4c0,0.1-0.1,0.2-0.2,0.3
				c-0.2,0.2-0.3,0.2-0.5,0.2c-0.1,0-0.3-0.1-0.4-0.2c-0.2-0.2-0.2-0.3-0.2-0.5c0-0.2,0.1-0.3,0.2-0.4c0.1-0.1,0.3-0.2,0.5-0.2
				c0.2,0,0.3,0.1,0.5,0.3l-0.6,0.6c0.1,0.1,0.1,0.1,0.2,0.1c0.1,0,0.1,0,0.2-0.1c0,0,0.1-0.1,0.1-0.1C56,39.7,56,39.7,55.9,39.6z
				 M55.7,39.3c-0.1-0.1-0.1-0.1-0.2-0.1c-0.1,0-0.1,0-0.2,0.1c-0.1,0.1-0.1,0.1-0.1,0.2c0,0.1,0,0.1,0.1,0.2L55.7,39.3L55.7,39.3z
				 M58.1,37.9l-0.2,0.2l-0.1-0.1c0,0.1,0,0.2,0,0.3s-0.1,0.1-0.1,0.2c-0.1,0.1-0.2,0.2-0.4,0.2c-0.2,0-0.3-0.1-0.5-0.2
				c-0.2-0.2-0.2-0.3-0.3-0.5c0-0.2,0-0.3,0.1-0.4c0.1-0.1,0.2-0.2,0.4-0.2L56.5,37l0.2-0.3L58.1,37.9L58.1,37.9z M57,38.2
				c0.1,0.1,0.2,0.1,0.3,0.2c0.1,0,0.2,0,0.3-0.1c0.1-0.1,0.1-0.1,0.1-0.2c0-0.1-0.1-0.2-0.2-0.3c-0.1-0.1-0.2-0.2-0.3-0.2
				c-0.1,0-0.2,0-0.2,0.1c-0.1,0.1-0.1,0.1-0.1,0.2C56.8,38,56.9,38.1,57,38.2L57,38.2z M58.9,37.1l0.3-0.3c0,0,0.1,0,0.1,0
				c0,0,0.1,0,0.1-0.1c0.1-0.1,0.1-0.1,0.1-0.2c0,0,0-0.1,0-0.1c0,0-0.1-0.1-0.1-0.1l-0.2-0.1c0.1,0.2,0,0.3-0.1,0.4
				c-0.1,0.1-0.2,0.2-0.4,0.2c-0.1,0-0.3-0.1-0.4-0.2c-0.2-0.1-0.3-0.3-0.3-0.4c0-0.2,0-0.3,0.1-0.4c0.1-0.1,0.2-0.2,0.4-0.2
				l-0.1-0.1l0.2-0.3l0.9,0.7c0.1,0.1,0.2,0.2,0.3,0.2c0,0.1,0.1,0.1,0.1,0.2c0,0.1,0,0.1,0,0.2c0,0.1-0.1,0.2-0.1,0.3
				c-0.1,0.2-0.3,0.3-0.4,0.3C59.1,37.2,59,37.2,58.9,37.1C58.9,37.1,58.9,37.1,58.9,37.1L58.9,37.1z M58.5,36.4
				c0.1,0.1,0.2,0.1,0.3,0.1c0.1,0,0.1,0,0.2-0.1c0.1-0.1,0.1-0.1,0-0.2c0-0.1-0.1-0.2-0.2-0.2c-0.1-0.1-0.2-0.1-0.3-0.1
				c-0.1,0-0.2,0-0.2,0.1c-0.1,0.1-0.1,0.1,0,0.2C58.3,36.2,58.4,36.3,58.5,36.4L58.5,36.4z M60.4,34.2l0.2-0.3
				c0.1,0.1,0.1,0.2,0.1,0.3c0,0.1,0,0.2-0.1,0.4c-0.1,0.2-0.3,0.3-0.5,0.3c-0.1,0-0.3,0-0.4-0.1c-0.2-0.1-0.3-0.3-0.3-0.4
				c0-0.2,0-0.3,0.1-0.5c0.1-0.2,0.2-0.3,0.4-0.3c0.2,0,0.4,0,0.6,0.2L60,34.6c0.1,0.1,0.2,0.1,0.2,0.1c0.1,0,0.1-0.1,0.2-0.1
				c0,0,0-0.1,0-0.1C60.4,34.3,60.4,34.3,60.4,34.2z M60.1,34C60,34,59.9,33.9,59.8,34c-0.1,0-0.1,0.1-0.2,0.1c0,0.1,0,0.1,0,0.2
				c0,0.1,0.1,0.1,0.2,0.2C59.8,34.5,60.1,34,60.1,34z"/>
		</g>
		<g>
			<path class="st7" d="M30.1,65.3H29l-0.4-1.8h-2l-0.4,1.8h-1.1l1.9-7.9h1.1L30.1,65.3L30.1,65.3z M28.2,62.2l-0.7-2.9l-0.7,2.9
				H28.2z M33.8,65.3h-1v-2.9c0-0.6,0-1-0.1-1.2c0-0.2-0.1-0.3-0.2-0.4c-0.1-0.1-0.2-0.2-0.3-0.2c-0.2,0-0.3,0.1-0.4,0.2
				c-0.1,0.1-0.2,0.3-0.3,0.6c-0.1,0.2-0.1,0.7-0.1,1.3v2.6h-1v-5.7h0.9v0.8c0.2-0.3,0.3-0.6,0.5-0.7c0.2-0.2,0.4-0.2,0.7-0.2
				c0.3,0,0.5,0.1,0.7,0.3c0.2,0.2,0.3,0.4,0.4,0.7c0.1,0.3,0.1,0.7,0.1,1.3L33.8,65.3L33.8,65.3z M36.7,65.3v-7.9h1v7.9H36.7z
				 M38.4,62.7l1-0.2c0.1,1,0.5,1.5,1.1,1.5c0.3,0,0.5-0.1,0.7-0.3c0.2-0.2,0.3-0.5,0.3-0.8c0-0.2,0-0.3-0.1-0.5
				c-0.1-0.1-0.2-0.2-0.3-0.3s-0.4-0.2-0.9-0.4c-0.4-0.2-0.7-0.4-0.9-0.5c-0.2-0.2-0.4-0.5-0.5-0.8c-0.1-0.3-0.2-0.7-0.2-1
				c0-0.4,0.1-0.8,0.2-1.2c0.2-0.3,0.4-0.6,0.6-0.8c0.3-0.2,0.6-0.3,1-0.3c0.6,0,1,0.2,1.4,0.6c0.3,0.4,0.5,1,0.5,1.8l-1,0.1
				c0-0.4-0.1-0.7-0.3-0.9c-0.1-0.2-0.4-0.3-0.6-0.3c-0.3,0-0.5,0.1-0.6,0.2c-0.1,0.1-0.2,0.3-0.2,0.5c0,0.2,0.1,0.4,0.2,0.5
				c0.1,0.1,0.4,0.3,0.9,0.5c0.5,0.2,0.9,0.4,1.1,0.6c0.2,0.2,0.4,0.5,0.5,0.8c0.1,0.3,0.2,0.7,0.2,1.2c0,0.7-0.2,1.3-0.5,1.7
				c-0.3,0.5-0.8,0.7-1.5,0.7C39.2,65.4,38.5,64.5,38.4,62.7L38.4,62.7z M43.1,61.4c0-0.9,0.1-1.7,0.3-2.3c0.2-0.6,0.5-1.1,0.8-1.4
				c0.3-0.3,0.8-0.4,1.2-0.4c0.7,0,1.3,0.4,1.7,1.1c0.4,0.7,0.7,1.7,0.7,3c0,1.3-0.2,2.3-0.7,3.1c-0.4,0.7-1,1-1.7,1
				c-0.7,0-1.3-0.3-1.7-1C43.3,63.7,43.1,62.7,43.1,61.4z M44.1,61.3c0,0.9,0.1,1.6,0.4,2c0.3,0.5,0.6,0.7,1,0.7
				c0.4,0,0.7-0.2,1-0.7c0.3-0.4,0.4-1.1,0.4-2.1c0-0.9-0.1-1.6-0.4-2c-0.3-0.4-0.6-0.7-1-0.7c-0.4,0-0.7,0.2-1,0.7
				C44.2,59.7,44.1,60.4,44.1,61.3L44.1,61.3z M52.8,65.3h-1v-5.7c-0.4,0.5-0.8,0.9-1.2,1.1v-1.4c0.3-0.1,0.5-0.4,0.8-0.7
				c0.3-0.4,0.5-0.8,0.6-1.2h0.8V65.3z M56,65.3v-1.6h-2v-1.3l2.1-5h0.8v5h0.6v1.3h-0.6v1.6H56L56,65.3z M56,62.4v-2.7l-1.1,2.7H56z
				 M59.6,57.4c0.5,0,0.9,0.3,1.2,0.9c0.3,0.6,0.4,1.6,0.4,3.1c0,1.5-0.1,2.5-0.4,3.1c-0.3,0.6-0.7,0.9-1.2,0.9
				c-0.5,0-0.9-0.3-1.2-0.9c-0.3-0.6-0.4-1.6-0.4-3.1c0-1.5,0.1-2.5,0.4-3.1C58.8,57.7,59.1,57.4,59.6,57.4L59.6,57.4z M59.6,58.6
				c-0.2,0-0.3,0.2-0.4,0.5c-0.1,0.3-0.2,1.1-0.2,2.3c0,1.2,0.1,2,0.2,2.3c0.1,0.3,0.3,0.5,0.4,0.5c0.2,0,0.3-0.2,0.4-0.5
				c0.1-0.3,0.2-1.1,0.2-2.3c0-1.2-0.1-2-0.2-2.3C60,58.8,59.8,58.6,59.6,58.6L59.6,58.6z M63.5,57.4c0.5,0,0.9,0.3,1.2,0.9
				c0.3,0.6,0.4,1.6,0.4,3.1c0,1.5-0.1,2.5-0.4,3.1c-0.3,0.6-0.7,0.9-1.2,0.9c-0.5,0-0.9-0.3-1.2-0.9c-0.3-0.6-0.4-1.6-0.4-3.1
				c0-1.5,0.1-2.5,0.4-3.1C62.6,57.7,63,57.4,63.5,57.4L63.5,57.4z M63.5,58.6c-0.2,0-0.3,0.2-0.4,0.5s-0.2,1.1-0.2,2.3
				c0,1.2,0.1,2,0.2,2.3c0.1,0.3,0.3,0.5,0.4,0.5c0.2,0,0.3-0.2,0.4-0.5c0.1-0.3,0.2-1.1,0.2-2.3c0-1.2-0.1-2-0.2-2.3
				C63.8,58.8,63.6,58.6,63.5,58.6L63.5,58.6z M68.1,65.3h-1v-5.7c-0.4,0.5-0.8,0.9-1.2,1.1v-1.4c0.3-0.1,0.5-0.4,0.8-0.7
				c0.3-0.4,0.5-0.8,0.6-1.2h0.8L68.1,65.3L68.1,65.3z M69.5,63.2v-1.5h1.9v1.5H69.5z M75,63.9v1.4h-3.3c0-0.5,0.1-1,0.3-1.5
				c0.2-0.5,0.5-1.1,1.1-1.9c0.4-0.6,0.7-1,0.8-1.3c0.1-0.3,0.2-0.6,0.2-1c0-0.3-0.1-0.6-0.2-0.8c-0.1-0.2-0.3-0.3-0.5-0.3
				c-0.4,0-0.6,0.4-0.7,1.2l-0.9-0.2c0.1-0.8,0.2-1.4,0.5-1.8c0.3-0.4,0.7-0.6,1.1-0.6c0.5,0,0.9,0.2,1.2,0.7
				c0.3,0.4,0.4,0.9,0.4,1.5c0,0.3,0,0.6-0.1,0.9c-0.1,0.3-0.2,0.6-0.3,0.9c-0.1,0.3-0.4,0.7-0.7,1.2c-0.3,0.4-0.5,0.7-0.6,0.9
				c-0.1,0.1-0.1,0.3-0.2,0.4L75,63.9L75,63.9z M77.3,57.4c0.5,0,0.9,0.3,1.2,0.9c0.3,0.6,0.4,1.6,0.4,3.1c0,1.5-0.1,2.5-0.4,3.1
				c-0.3,0.6-0.7,0.9-1.2,0.9c-0.5,0-0.9-0.3-1.2-0.9c-0.3-0.6-0.4-1.6-0.4-3.1c0-1.5,0.1-2.5,0.4-3.1
				C76.4,57.7,76.8,57.4,77.3,57.4L77.3,57.4z M77.3,58.6c-0.2,0-0.3,0.2-0.4,0.5c-0.1,0.3-0.2,1.1-0.2,2.3c0,1.2,0.1,2,0.2,2.3
				c0.1,0.3,0.3,0.5,0.4,0.5c0.2,0,0.3-0.2,0.4-0.5c0.1-0.3,0.2-1.1,0.2-2.3c0-1.2-0.1-2-0.2-2.3C77.6,58.8,77.5,58.6,77.3,58.6
				L77.3,58.6z M81.9,65.3h-1v-5.7c-0.4,0.5-0.8,0.9-1.2,1.1v-1.4c0.3-0.1,0.5-0.4,0.8-0.7c0.3-0.4,0.5-0.8,0.6-1.2h0.8V65.3z
				 M83.4,63.3l0.9-0.2c0,0.3,0.1,0.6,0.2,0.8c0.1,0.2,0.3,0.3,0.5,0.3c0.2,0,0.4-0.1,0.5-0.4c0.1-0.3,0.2-0.6,0.2-1.2
				c0-0.5-0.1-0.9-0.2-1.1c-0.1-0.2-0.3-0.4-0.5-0.4c-0.3,0-0.5,0.2-0.7,0.6l-0.8-0.2l0.5-4.1h2.5v1.4h-1.8l-0.2,1.3
				c0.2-0.2,0.4-0.3,0.6-0.3c0.4,0,0.7,0.2,1,0.6c0.3,0.5,0.5,1.2,0.5,2c0,0.7-0.1,1.3-0.4,1.9c-0.3,0.6-0.7,0.9-1.2,0.9
				c-0.4,0-0.8-0.2-1.1-0.6C83.6,64.5,83.4,63.9,83.4,63.3L83.4,63.3z M89.5,61.1v-1.5h0.9v1.5H89.5z M89.5,65.3v-1.5h0.9v1.5H89.5z
				 M93.3,63.5l0.9-0.2c0,0.6,0.2,0.9,0.5,0.9c0.2,0,0.4-0.1,0.5-0.4s0.2-0.9,0.3-1.8c-0.1,0.2-0.3,0.4-0.4,0.5
				c-0.1,0.1-0.3,0.2-0.5,0.2c-0.4,0-0.7-0.2-1-0.7c-0.3-0.5-0.4-1.1-0.4-1.9c0-0.8,0.2-1.5,0.5-2c0.3-0.5,0.7-0.7,1.1-0.7
				c0.5,0,0.9,0.3,1.2,0.9c0.3,0.6,0.5,1.6,0.5,3c0,1.4-0.2,2.5-0.5,3.1c-0.3,0.6-0.8,0.9-1.3,0.9c-0.4,0-0.7-0.2-0.9-0.5
				C93.6,64.6,93.4,64.1,93.3,63.5L93.3,63.5z M95.5,60.2c0-0.5-0.1-0.9-0.2-1.1c-0.1-0.3-0.3-0.4-0.5-0.4c-0.2,0-0.3,0.1-0.4,0.3
				c-0.1,0.2-0.2,0.6-0.2,1.1c0,0.5,0.1,0.9,0.2,1.1c0.1,0.2,0.3,0.4,0.5,0.4c0.2,0,0.3-0.1,0.5-0.3C95.4,60.9,95.5,60.6,95.5,60.2
				L95.5,60.2z M98.8,57.4c0.5,0,0.9,0.3,1.2,0.9c0.3,0.6,0.4,1.6,0.4,3.1c0,1.5-0.1,2.5-0.4,3.1c-0.3,0.6-0.7,0.9-1.2,0.9
				c-0.5,0-0.9-0.3-1.2-0.9c-0.3-0.6-0.4-1.6-0.4-3.1c0-1.5,0.1-2.5,0.4-3.1C97.9,57.7,98.3,57.4,98.8,57.4L98.8,57.4z M98.8,58.6
				c-0.2,0-0.3,0.2-0.4,0.5c-0.1,0.3-0.2,1.1-0.2,2.3c0,1.2,0.1,2,0.2,2.3c0.1,0.3,0.3,0.5,0.4,0.5c0.2,0,0.3-0.2,0.4-0.5
				c0.1-0.3,0.2-1.1,0.2-2.3c0-1.2-0.1-2-0.2-2.3C99.1,58.8,99,58.6,98.8,58.6L98.8,58.6z M102.6,57.4c0.5,0,0.9,0.3,1.2,0.9
				c0.3,0.6,0.4,1.6,0.4,3.1c0,1.5-0.1,2.5-0.4,3.1c-0.3,0.6-0.7,0.9-1.2,0.9c-0.5,0-0.9-0.3-1.2-0.9c-0.3-0.6-0.4-1.6-0.4-3.1
				c0-1.5,0.1-2.5,0.4-3.1C101.7,57.7,102.1,57.4,102.6,57.4L102.6,57.4z M102.6,58.6c-0.2,0-0.3,0.2-0.4,0.5s-0.2,1.1-0.2,2.3
				c0,1.2,0.1,2,0.2,2.3c0.1,0.3,0.3,0.5,0.4,0.5c0.2,0,0.3-0.2,0.4-0.5c0.1-0.3,0.2-1.1,0.2-2.3c0-1.2-0.1-2-0.2-2.3
				C102.9,58.8,102.8,58.6,102.6,58.6L102.6,58.6z M107.3,65.3h-1v-5.7c-0.4,0.5-0.8,0.9-1.2,1.1v-1.4c0.3-0.1,0.5-0.4,0.8-0.7
				c0.3-0.4,0.5-0.8,0.6-1.2h0.8L107.3,65.3L107.3,65.3z M108.6,63.2v-1.5h1.9v1.5H108.6z M114.2,63.9v1.4h-3.3c0-0.5,0.1-1,0.3-1.5
				c0.2-0.5,0.5-1.1,1.1-1.9c0.4-0.6,0.7-1,0.8-1.3c0.1-0.3,0.2-0.6,0.2-1c0-0.3-0.1-0.6-0.2-0.8c-0.1-0.2-0.3-0.3-0.5-0.3
				c-0.4,0-0.6,0.4-0.7,1.2l-0.9-0.2c0.1-0.8,0.2-1.4,0.5-1.8c0.3-0.4,0.7-0.6,1.1-0.6c0.5,0,0.9,0.2,1.2,0.7
				c0.3,0.4,0.4,0.9,0.4,1.5c0,0.3,0,0.6-0.1,0.9c-0.1,0.3-0.2,0.6-0.3,0.9c-0.1,0.3-0.4,0.7-0.7,1.2c-0.3,0.4-0.5,0.7-0.6,0.9
				c-0.1,0.1-0.1,0.3-0.2,0.4L114.2,63.9L114.2,63.9z M116.4,57.4c0.5,0,0.9,0.3,1.2,0.9c0.3,0.6,0.4,1.6,0.4,3.1
				c0,1.5-0.1,2.5-0.4,3.1c-0.3,0.6-0.7,0.9-1.2,0.9c-0.5,0-0.9-0.3-1.2-0.9c-0.3-0.6-0.4-1.6-0.4-3.1c0-1.5,0.1-2.5,0.4-3.1
				C115.6,57.7,115.9,57.4,116.4,57.4L116.4,57.4z M116.4,58.6c-0.2,0-0.3,0.2-0.4,0.5c-0.1,0.3-0.2,1.1-0.2,2.3
				c0,1.2,0.1,2,0.2,2.3c0.1,0.3,0.3,0.5,0.4,0.5c0.2,0,0.3-0.2,0.4-0.5c0.1-0.3,0.2-1.1,0.2-2.3c0-1.2-0.1-2-0.2-2.3
				C116.8,58.8,116.6,58.6,116.4,58.6L116.4,58.6z M121.1,65.3h-1v-5.7c-0.4,0.5-0.8,0.9-1.2,1.1v-1.4c0.3-0.1,0.5-0.4,0.8-0.7
				c0.3-0.4,0.5-0.8,0.6-1.2h0.8C121.1,57.4,121.1,65.3,121.1,65.3z M122.5,63.3l0.9-0.2c0,0.3,0.1,0.6,0.2,0.8
				c0.1,0.2,0.3,0.3,0.5,0.3c0.2,0,0.4-0.1,0.5-0.4c0.1-0.3,0.2-0.6,0.2-1.2c0-0.5-0.1-0.9-0.2-1.1c-0.1-0.2-0.3-0.4-0.5-0.4
				c-0.3,0-0.5,0.2-0.7,0.6l-0.8-0.2l0.5-4.1h2.5v1.4h-1.8l-0.2,1.3c0.2-0.2,0.4-0.3,0.7-0.3c0.4,0,0.7,0.2,1,0.6
				c0.3,0.5,0.5,1.2,0.5,2c0,0.7-0.1,1.3-0.4,1.9c-0.3,0.6-0.7,0.9-1.2,0.9c-0.4,0-0.8-0.2-1.1-0.6
				C122.7,64.5,122.6,63.9,122.5,63.3L122.5,63.3z M132.8,64.3l-0.6,1.2c-0.3-0.2-0.6-0.5-0.8-0.9c-0.2,0.3-0.4,0.5-0.6,0.6
				c-0.2,0.1-0.5,0.2-0.8,0.2c-0.6,0-1-0.2-1.3-0.7c-0.3-0.5-0.4-1-0.4-1.6c0-1,0.4-1.8,1.1-2.4c-0.3-0.6-0.5-1.2-0.5-1.7
				c0-0.5,0.1-0.9,0.4-1.2c0.3-0.3,0.6-0.5,1-0.5c0.4,0,0.7,0.2,1,0.5c0.3,0.3,0.4,0.8,0.4,1.3c0,0.3-0.1,0.7-0.2,0.9
				s-0.4,0.6-0.7,0.9l0.7,1.4c0.1-0.2,0.1-0.5,0.2-0.9l0.9,0.3c-0.1,0.8-0.3,1.3-0.4,1.6c0.1,0.2,0.2,0.3,0.4,0.5
				C132.6,64.1,132.8,64.3,132.8,64.3L132.8,64.3z M130.2,60l0.3-0.3c0.2-0.2,0.3-0.5,0.3-0.7c0-0.2,0-0.4-0.1-0.5
				c-0.1-0.1-0.2-0.2-0.4-0.2c-0.1,0-0.3,0.1-0.3,0.2c-0.1,0.1-0.1,0.3-0.1,0.4c0,0.2,0.1,0.4,0.2,0.7L130.2,60L130.2,60z
				 M129.9,61.7c-0.2,0.2-0.4,0.4-0.5,0.6c-0.1,0.2-0.2,0.5-0.2,0.8c0,0.3,0.1,0.6,0.2,0.8c0.1,0.2,0.3,0.3,0.5,0.3
				c0.3,0,0.6-0.2,0.9-0.6L129.9,61.7L129.9,61.7z M138.4,63.9v1.4H135c0-0.5,0.1-1,0.3-1.5c0.2-0.5,0.5-1.1,1.1-1.9
				c0.4-0.6,0.7-1,0.8-1.3c0.1-0.3,0.2-0.6,0.2-1c0-0.3-0.1-0.6-0.2-0.8c-0.1-0.2-0.3-0.3-0.5-0.3c-0.4,0-0.6,0.4-0.7,1.2l-0.9-0.2
				c0.1-0.8,0.2-1.4,0.5-1.8c0.3-0.4,0.7-0.6,1.1-0.6c0.5,0,0.9,0.2,1.2,0.7c0.3,0.4,0.4,0.9,0.4,1.5c0,0.3,0,0.6-0.1,0.9
				c-0.1,0.3-0.2,0.6-0.3,0.9c-0.1,0.3-0.4,0.7-0.7,1.2c-0.3,0.4-0.5,0.7-0.6,0.9c-0.1,0.1-0.1,0.3-0.2,0.4L138.4,63.9L138.4,63.9z
				 M139,58.9v-1.4h3.2v1.1c-0.3,0.4-0.5,1-0.8,1.8c-0.3,0.8-0.5,1.6-0.6,2.5c-0.1,0.9-0.2,1.7-0.2,2.4h-0.9c0-1.1,0.2-2.2,0.4-3.3
				c0.3-1.1,0.6-2.1,1.1-3L139,58.9L139,58.9z M144.4,57.4c0.5,0,0.9,0.3,1.2,0.9c0.3,0.6,0.4,1.6,0.4,3.1c0,1.5-0.1,2.5-0.4,3.1
				c-0.3,0.6-0.7,0.9-1.2,0.9c-0.5,0-0.9-0.3-1.2-0.9c-0.3-0.6-0.4-1.6-0.4-3.1c0-1.5,0.1-2.5,0.4-3.1
				C143.6,57.7,144,57.4,144.4,57.4L144.4,57.4z M144.4,58.6c-0.2,0-0.3,0.2-0.4,0.5c-0.1,0.3-0.2,1.1-0.2,2.3c0,1.2,0.1,2,0.2,2.3
				c0.1,0.3,0.3,0.5,0.4,0.5c0.2,0,0.3-0.2,0.4-0.5c0.1-0.3,0.2-1.1,0.2-2.3c0-1.2-0.1-2-0.2-2.3C144.8,58.8,144.6,58.6,144.4,58.6
				L144.4,58.6z M148.3,57.4c0.5,0,0.9,0.3,1.2,0.9c0.3,0.6,0.4,1.6,0.4,3.1c0,1.5-0.1,2.5-0.4,3.1c-0.3,0.6-0.7,0.9-1.2,0.9
				c-0.5,0-0.9-0.3-1.2-0.9c-0.3-0.6-0.4-1.6-0.4-3.1c0-1.5,0.1-2.5,0.4-3.1C147.4,57.7,147.8,57.4,148.3,57.4L148.3,57.4z
				 M148.3,58.6c-0.2,0-0.3,0.2-0.4,0.5c-0.1,0.3-0.2,1.1-0.2,2.3c0,1.2,0.1,2,0.2,2.3c0.1,0.3,0.3,0.5,0.4,0.5
				c0.2,0,0.3-0.2,0.4-0.5c0.1-0.3,0.2-1.1,0.2-2.3c0-1.2-0.1-2-0.2-2.3C148.6,58.8,148.5,58.6,148.3,58.6L148.3,58.6z M152.9,65.3
				h-1v-5.7c-0.4,0.5-0.8,0.9-1.2,1.1v-1.4c0.3-0.1,0.5-0.4,0.8-0.7c0.3-0.4,0.5-0.8,0.6-1.2h0.8L152.9,65.3L152.9,65.3z
				 M154.3,63.2v-1.5h1.9v1.5H154.3z M159.8,63.9v1.4h-3.3c0-0.5,0.1-1,0.3-1.5c0.2-0.5,0.5-1.1,1.1-1.9c0.4-0.6,0.7-1,0.8-1.3
				c0.1-0.3,0.2-0.6,0.2-1c0-0.3-0.1-0.6-0.2-0.8c-0.1-0.2-0.3-0.3-0.5-0.3c-0.4,0-0.6,0.4-0.7,1.2l-0.9-0.2
				c0.1-0.8,0.2-1.4,0.5-1.8c0.3-0.4,0.7-0.6,1.1-0.6c0.5,0,0.9,0.2,1.2,0.7c0.3,0.4,0.4,0.9,0.4,1.5c0,0.3,0,0.6-0.1,0.9
				c-0.1,0.3-0.2,0.6-0.3,0.9c-0.1,0.3-0.4,0.7-0.7,1.2c-0.3,0.4-0.5,0.7-0.6,0.9c-0.1,0.1-0.1,0.3-0.2,0.4L159.8,63.9L159.8,63.9z
				 M162.1,57.4c0.5,0,0.9,0.3,1.2,0.9c0.3,0.6,0.4,1.6,0.4,3.1c0,1.5-0.1,2.5-0.4,3.1c-0.3,0.6-0.7,0.9-1.2,0.9
				c-0.5,0-0.9-0.3-1.2-0.9c-0.3-0.6-0.4-1.6-0.4-3.1c0-1.5,0.1-2.5,0.4-3.1C161.2,57.7,161.6,57.4,162.1,57.4L162.1,57.4z
				 M162.1,58.6c-0.2,0-0.3,0.2-0.4,0.5c-0.1,0.3-0.2,1.1-0.2,2.3c0,1.2,0.1,2,0.2,2.3c0.1,0.3,0.3,0.5,0.4,0.5
				c0.2,0,0.3-0.2,0.4-0.5c0.1-0.3,0.2-1.1,0.2-2.3c0-1.2-0.1-2-0.2-2.3C162.4,58.8,162.3,58.6,162.1,58.6L162.1,58.6z M166.7,65.3
				h-1v-5.7c-0.4,0.5-0.8,0.9-1.2,1.1v-1.4c0.3-0.1,0.5-0.4,0.8-0.7c0.3-0.4,0.5-0.8,0.6-1.2h0.8L166.7,65.3L166.7,65.3z
				 M168.1,63.2L169,63c0,0.4,0.1,0.7,0.2,0.9c0.1,0.2,0.3,0.3,0.5,0.3c0.2,0,0.4-0.1,0.5-0.3c0.1-0.2,0.2-0.6,0.2-1
				c0-0.4-0.1-0.7-0.2-0.9c-0.1-0.2-0.3-0.3-0.5-0.3c-0.1,0-0.3,0-0.4,0.1l0.1-1.2c0.2,0,0.4-0.1,0.6-0.3c0.1-0.2,0.2-0.4,0.2-0.7
				c0-0.3-0.1-0.5-0.2-0.6s-0.2-0.2-0.4-0.2c-0.2,0-0.3,0.1-0.4,0.3c-0.1,0.2-0.2,0.4-0.2,0.8l-0.9-0.2c0.1-0.7,0.3-1.2,0.5-1.6
				c0.3-0.3,0.6-0.5,1-0.5c0.4,0,0.8,0.2,1.1,0.6c0.3,0.4,0.4,0.9,0.4,1.4c0,0.3-0.1,0.7-0.2,0.9c-0.1,0.3-0.3,0.5-0.5,0.7
				c0.3,0.1,0.5,0.3,0.7,0.6c0.2,0.3,0.3,0.7,0.3,1.2c0,0.7-0.2,1.3-0.5,1.8c-0.3,0.5-0.7,0.7-1.2,0.7c-0.4,0-0.8-0.2-1.1-0.6
				C168.4,64.4,168.2,63.9,168.1,63.2L168.1,63.2z M177.3,62.4l1,0.5c-0.2,0.9-0.4,1.5-0.8,1.9c-0.4,0.4-0.8,0.6-1.3,0.6
				c-0.6,0-1.2-0.3-1.6-1c-0.5-0.7-0.7-1.8-0.7-3c0-1.3,0.2-2.4,0.7-3.2c0.4-0.7,0.9-1,1.6-1c0.6,0,1,0.2,1.4,0.7
				c0.3,0.4,0.5,0.9,0.6,1.6l-1,0.4c-0.1-0.4-0.2-0.8-0.4-1c-0.2-0.2-0.4-0.3-0.7-0.3c-0.4,0-0.7,0.2-0.9,0.6
				c-0.2,0.4-0.3,1.1-0.3,2.1c0,1,0.1,1.7,0.3,2.1c0.2,0.4,0.5,0.6,0.9,0.6c0.3,0,0.5-0.1,0.7-0.4C177.1,63.4,177.2,63,177.3,62.4
				L177.3,62.4z M181.2,63.5l0.9,0.3c-0.1,0.6-0.3,1-0.6,1.3c-0.3,0.3-0.6,0.4-1,0.4c-0.5,0-0.9-0.2-1.2-0.7
				c-0.3-0.5-0.5-1.3-0.5-2.3c0-1,0.2-1.7,0.5-2.3c0.3-0.5,0.7-0.7,1.1-0.7c0.5,0,0.9,0.2,1.2,0.7c0.3,0.6,0.5,1.4,0.5,2.5l0,0.2
				h-2.4c0,0.5,0.1,0.8,0.2,1c0.2,0.2,0.3,0.4,0.5,0.4C180.9,64.3,181.1,64,181.2,63.5L181.2,63.5z M181.2,61.9c0-0.4-0.1-0.8-0.2-1
				c-0.1-0.2-0.3-0.3-0.5-0.3c-0.2,0-0.4,0.1-0.5,0.4c-0.1,0.2-0.2,0.6-0.2,1L181.2,61.9L181.2,61.9z M183.9,65.3h-1v-5.7h0.9v0.8
				c0.2-0.4,0.3-0.6,0.4-0.8c0.1-0.1,0.3-0.2,0.4-0.2c0.2,0,0.4,0.1,0.6,0.3l-0.3,1.3c-0.2-0.2-0.3-0.2-0.4-0.2
				c-0.1,0-0.2,0.1-0.3,0.2c-0.1,0.1-0.2,0.4-0.2,0.7c0,0.3-0.1,0.9-0.1,1.8V65.3L183.9,65.3z M187.3,59.6v1.2h-0.6v2.3
				c0,0.5,0,0.8,0,0.9c0,0.1,0.1,0.2,0.2,0.2c0.1,0,0.2,0,0.4-0.1l0.1,1.2c-0.2,0.2-0.5,0.2-0.7,0.2c-0.2,0-0.4-0.1-0.6-0.2
				c-0.1-0.2-0.2-0.4-0.3-0.7c0-0.2-0.1-0.6-0.1-1.3v-2.5h-0.4v-1.2h0.4v-1.1l1-0.9v2L187.3,59.6L187.3,59.6z M187.9,58.8v-1.4h1
				v1.4H187.9z M187.9,65.3v-5.7h1v5.7H187.9z M189.4,59.6h0.5v-0.4c0-0.5,0-0.9,0.1-1.1c0.1-0.2,0.2-0.4,0.4-0.5
				c0.2-0.1,0.4-0.2,0.6-0.2c0.3,0,0.5,0.1,0.8,0.2l-0.1,1c-0.2-0.1-0.3-0.1-0.4-0.1c-0.1,0-0.2,0-0.3,0.2c-0.1,0.1-0.1,0.3-0.1,0.6
				v0.4h0.7v1.2h-0.7v4.5h-1v-4.5h-0.5L189.4,59.6L189.4,59.6z M192.1,58.8v-1.4h1v1.4H192.1z M192.1,65.3v-5.7h1v5.7H192.1z
				 M196.1,63.5l0.9,0.3c-0.1,0.6-0.3,1-0.6,1.3c-0.3,0.3-0.6,0.4-1,0.4c-0.5,0-0.9-0.2-1.2-0.7c-0.3-0.5-0.5-1.3-0.5-2.3
				c0-1,0.2-1.7,0.5-2.3c0.3-0.5,0.7-0.7,1.1-0.7c0.5,0,0.9,0.2,1.2,0.7c0.3,0.6,0.5,1.4,0.5,2.5l0,0.2h-2.4c0,0.5,0.1,0.8,0.2,1
				c0.2,0.2,0.3,0.4,0.5,0.4C195.8,64.3,196,64,196.1,63.5L196.1,63.5z M196.2,61.9c0-0.4-0.1-0.8-0.2-1c-0.1-0.2-0.3-0.3-0.5-0.3
				c-0.2,0-0.4,0.1-0.5,0.4c-0.1,0.2-0.2,0.6-0.2,1L196.2,61.9L196.2,61.9z M201.2,65.3h-0.9v-0.8c-0.1,0.3-0.3,0.6-0.5,0.7
				c-0.2,0.2-0.4,0.2-0.6,0.2c-0.4,0-0.7-0.3-1-0.8c-0.3-0.5-0.4-1.3-0.4-2.2c0-1,0.1-1.7,0.4-2.2c0.3-0.5,0.6-0.7,1.1-0.7
				c0.2,0,0.4,0.1,0.6,0.2c0.2,0.1,0.3,0.3,0.5,0.6v-2.8h1L201.2,65.3L201.2,65.3z M198.7,62.3c0,0.5,0,0.9,0.1,1.2
				c0.1,0.3,0.2,0.4,0.3,0.6c0.1,0.1,0.3,0.2,0.4,0.2c0.2,0,0.4-0.1,0.5-0.4s0.2-0.7,0.2-1.3c0-0.7-0.1-1.1-0.2-1.4
				c-0.1-0.3-0.3-0.4-0.6-0.4c-0.2,0-0.4,0.1-0.6,0.4C198.7,61.3,198.7,61.7,198.7,62.3L198.7,62.3z M204,65.3v-7.9h1v7.9H204z
				 M209.2,65.3h-1v-2.9c0-0.6,0-1-0.1-1.2c0-0.2-0.1-0.3-0.2-0.4c-0.1-0.1-0.2-0.2-0.3-0.2c-0.2,0-0.3,0.1-0.4,0.2
				c-0.1,0.1-0.2,0.3-0.3,0.6c-0.1,0.2-0.1,0.7-0.1,1.3v2.6h-1v-5.7h0.9v0.8c0.2-0.3,0.3-0.6,0.5-0.7c0.2-0.2,0.4-0.2,0.7-0.2
				c0.3,0,0.5,0.1,0.7,0.3c0.2,0.2,0.3,0.4,0.4,0.7c0.1,0.3,0.1,0.7,0.1,1.3L209.2,65.3L209.2,65.3z"/>
			<path class="st7" d="M209.8,63.7l1-0.2c0.1,0.6,0.3,0.9,0.8,0.9c0.2,0,0.4-0.1,0.5-0.2c0.1-0.1,0.2-0.3,0.2-0.4
				c0-0.1,0-0.2-0.1-0.3c-0.1-0.1-0.2-0.1-0.3-0.2c-0.8-0.3-1.3-0.5-1.5-0.8c-0.3-0.3-0.4-0.7-0.4-1.3c0-0.5,0.1-1,0.4-1.3
				c0.3-0.3,0.6-0.5,1.1-0.5c0.5,0,0.8,0.1,1.1,0.4c0.2,0.2,0.4,0.6,0.5,1.2l-0.9,0.3c-0.1-0.5-0.3-0.7-0.7-0.7
				c-0.2,0-0.4,0-0.5,0.1c-0.1,0.1-0.1,0.2-0.1,0.3c0,0.1,0,0.2,0.1,0.3c0.1,0.1,0.4,0.2,0.8,0.4c0.5,0.2,0.9,0.4,1.1,0.7
				c0.2,0.3,0.3,0.6,0.3,1.1c0,0.6-0.1,1-0.4,1.4s-0.7,0.5-1.2,0.5c-0.5,0-0.8-0.2-1.1-0.4C210.1,64.7,209.9,64.2,209.8,63.7
				L209.8,63.7z M215.7,59.6v1.2H215v2.3c0,0.5,0,0.8,0,0.9c0,0.1,0.1,0.2,0.2,0.2c0.1,0,0.2,0,0.4-0.1l0.1,1.2
				c-0.2,0.2-0.5,0.2-0.7,0.2c-0.2,0-0.4-0.1-0.6-0.2c-0.1-0.2-0.2-0.4-0.3-0.7c0-0.2-0.1-0.6-0.1-1.3v-2.5h-0.4v-1.2h0.4v-1.1
				l1-0.9v2L215.7,59.6L215.7,59.6z M216.3,58.8v-1.4h1v1.4H216.3z M216.3,65.3v-5.7h1v5.7H216.3z M219.9,59.6v1.2h-0.6v2.3
				c0,0.5,0,0.8,0,0.9c0,0.1,0.1,0.2,0.2,0.2c0.1,0,0.2,0,0.4-0.1l0.1,1.2c-0.2,0.2-0.5,0.2-0.7,0.2c-0.2,0-0.4-0.1-0.6-0.2
				c-0.1-0.2-0.2-0.4-0.3-0.7c0-0.2-0.1-0.6-0.1-1.3v-2.5h-0.4v-1.2h0.4v-1.1l1-0.9v2L219.9,59.6L219.9,59.6z M222.9,65.3v-0.9
				c-0.1,0.3-0.3,0.6-0.5,0.7c-0.2,0.2-0.4,0.3-0.7,0.3c-0.2,0-0.4-0.1-0.6-0.2c-0.2-0.2-0.3-0.4-0.4-0.7c-0.1-0.3-0.1-0.7-0.1-1.3
				v-3.6h1v2.6c0,0.8,0,1.2,0,1.4c0,0.2,0.1,0.4,0.2,0.5c0.1,0.1,0.2,0.2,0.4,0.2c0.2,0,0.3-0.1,0.4-0.2c0.1-0.1,0.2-0.3,0.3-0.6
				c0-0.2,0.1-0.7,0.1-1.5v-2.4h1v5.7L222.9,65.3L222.9,65.3z M226.4,59.6v1.2h-0.6v2.3c0,0.5,0,0.8,0,0.9c0,0.1,0.1,0.2,0.2,0.2
				c0.1,0,0.2,0,0.4-0.1l0.1,1.2c-0.2,0.2-0.5,0.2-0.7,0.2c-0.2,0-0.4-0.1-0.6-0.2c-0.1-0.2-0.2-0.4-0.3-0.7c0-0.2-0.1-0.6-0.1-1.3
				v-2.5h-0.4v-1.2h0.4v-1.1l1-0.9v2L226.4,59.6L226.4,59.6z M229.1,63.5l0.9,0.3c-0.1,0.6-0.3,1-0.6,1.3c-0.3,0.3-0.6,0.4-1,0.4
				c-0.5,0-0.9-0.2-1.2-0.7c-0.3-0.5-0.5-1.3-0.5-2.3c0-1,0.2-1.7,0.5-2.3c0.3-0.5,0.7-0.7,1.1-0.7c0.5,0,0.9,0.2,1.2,0.7
				c0.3,0.6,0.5,1.4,0.5,2.5l0,0.2h-2.4c0,0.5,0.1,0.8,0.2,1c0.2,0.2,0.3,0.4,0.5,0.4C228.8,64.3,229,64,229.1,63.5L229.1,63.5z
				 M229.2,61.9c0-0.4-0.1-0.8-0.2-1c-0.1-0.2-0.3-0.3-0.5-0.3c-0.2,0-0.4,0.1-0.5,0.4c-0.1,0.2-0.2,0.6-0.2,1L229.2,61.9
				L229.2,61.9z"/>
		</g>
		<path class="st0" d="M221.5,8.7h1.4c0.3,0,0.5,0,0.7-0.1c0.2-0.1,0.3-0.2,0.4-0.3c0.1-0.1,0.1-0.2,0.1-0.4c0-0.3-0.1-0.4-0.3-0.6
			c-0.2-0.1-0.4-0.2-0.8-0.2h-1.6L221.5,8.7L221.5,8.7z M220.9,11.4V6.6h2.2c0.4,0,0.8,0.1,1,0.1c0.3,0.1,0.4,0.2,0.5,0.4
			c0.2,0.2,0.2,0.5,0.2,0.8c0,0.3-0.1,0.6-0.3,0.8c-0.2,0.3-0.6,0.4-1,0.4c0.2,0.1,0.3,0.2,0.4,0.3c0.2,0.2,0.4,0.4,0.5,0.6l0.8,1.3
			h-0.8l-0.7-1c-0.2-0.3-0.4-0.5-0.5-0.7c-0.1-0.2-0.2-0.3-0.3-0.3s-0.2-0.1-0.3-0.1s-0.2-0.1-0.4-0.1h-0.8v2.1L220.9,11.4
			L220.9,11.4z M222.9,5.4L222.9,5.4c-1,0-2,0.4-2.7,1.1c-0.7,0.7-1.1,1.6-1.1,2.6l0,0c0,1,0.4,1.9,1.1,2.6c0.7,0.7,1.6,1.1,2.7,1.1
			l0,0c1,0,2-0.4,2.7-1.1c0.7-0.7,1.1-1.6,1.1-2.6l0,0V9c0-1-0.4-1.9-1.1-2.6C225,5.8,224,5.4,222.9,5.4z M222.9,4.5L222.9,4.5
			L222.9,4.5c1.3,0,2.5,0.5,3.3,1.4c0.9,0.8,1.4,1.9,1.4,3.2l0,0v0.1l0,0c0,1.3-0.5,2.3-1.4,3.2c-0.8,0.8-2,1.4-3.3,1.4l0,0
			c-1.3,0-2.5-0.5-3.3-1.4c-0.9-0.8-1.4-1.9-1.4-3.2l0,0l0,0c0-1.3,0.5-2.4,1.4-3.2l0,0C220.5,5.1,221.7,4.5,222.9,4.5z"/>
		<path class="st0" d="M214.2,35.9l0.7,0.2c-0.1,0.5-0.4,0.9-0.7,1.2c-0.4,0.3-0.8,0.4-1.3,0.4c-0.5,0-0.9-0.1-1.3-0.3
			c-0.3-0.2-0.5-0.5-0.7-0.9c-0.2-0.4-0.3-0.8-0.3-1.3c0-0.5,0.1-0.9,0.3-1.3c0.2-0.4,0.5-0.7,0.9-0.8c0.3-0.2,0.7-0.3,1.1-0.3
			c0.5,0,0.9,0.1,1.3,0.3c0.3,0.3,0.5,0.6,0.7,1l-0.7,0.2c-0.1-0.4-0.3-0.6-0.5-0.8c-0.2-0.2-0.5-0.2-0.8-0.2
			c-0.4,0-0.7,0.1-0.9,0.2c-0.3,0.2-0.4,0.4-0.5,0.7c-0.1,0.3-0.2,0.6-0.2,0.9c0,0.4,0.1,0.8,0.2,1.1c0.2,0.3,0.3,0.5,0.6,0.7
			c0.2,0.2,0.5,0.2,0.8,0.2c0.4,0,0.7-0.1,0.9-0.3C214,36.6,214.2,36.3,214.2,35.9L214.2,35.9z M212.8,31.5L212.8,31.5L212.8,31.5
			L212.8,31.5c-1,0-2,0.4-2.7,1.1c-0.7,0.7-1.1,1.6-1.1,2.6l0,0c0,1,0.4,1.9,1.1,2.6c0.7,0.7,1.6,1.1,2.7,1.1l0,0l0,0l0,0
			c1,0,2-0.4,2.7-1.1c0.7-0.7,1.1-1.6,1.1-2.6l0,0c0-1-0.4-2-1.1-2.6C214.8,32,213.9,31.5,212.8,31.5z M212.8,30.7L212.8,30.7
			c1.3,0,2.5,0.5,3.3,1.3c0.9,0.8,1.4,2,1.4,3.2l0,0l0,0c0,1.3-0.5,2.4-1.4,3.2c-0.8,0.8-2,1.3-3.3,1.3l0,0l0,0
			c-1.3,0-2.5-0.5-3.3-1.3c-0.8-0.8-1.4-2-1.4-3.2l0,0l0,0c0-1.3,0.5-2.4,1.4-3.2l0,0C210.4,31.2,211.6,30.7,212.8,30.7z"/>
	</g>
</g>
</svg>
